<?xml version="1.0" encoding="utf-8"?>
<!-- Generator: Adobe Illustrator 19.1.0, SVG Export Plug-In . SVG Version: 6.00 Build 0)  -->
<!DOCTYPE svg PUBLIC "-//W3C//DTD SVG 1.1//EN" "http://www.w3.org/Graphics/SVG/1.1/DTD/svg11.dtd">
<svg version="1.1" id="Layer_1" xmlns="http://www.w3.org/2000/svg" xmlns:xlink="http://www.w3.org/1999/xlink" x="0px" y="0px"
	 viewBox="0 0 289 289" style="enable-background:new 0 0 289 289;" xml:space="preserve">
<style type="text/css">
	.st0{fill:#C5D9E9;}
	.st1{fill-rule:evenodd;clip-rule:evenodd;fill:#C5D9E9;}
</style>
<g>
	<path class="st0" d="M144.5,289C64.8,289,0,224.2,0,144.5C0,64.8,64.8,0,144.5,0C224.2,0,289,64.8,289,144.5
		C289,224.2,224.2,289,144.5,289z M144.5,30C81.4,30,30,81.4,30,144.5S81.4,259,144.5,259c63.1,0,114.5-51.4,114.5-114.5
		S207.6,30,144.5,30z"/>
</g>
<g>
	<path class="st1" d="M89.7,211.9c-0.3-0.5-0.2-1-0.2-1.5c0-8.1,0-16.2,0-24.3c0-2.7,0-5.5,0-8.2c0-2.2,0.1-4.4,0.4-6.6
		c0.5-3.9,1.6-7.7,3.2-11.4c5.4-12.3,16.4-21.4,29.4-24.4c3.1-0.7,6.2-1.1,9.4-1.1c9.5,0,19,0,28.4,0c19.9,0,36.6,13.9,41.1,32.4
		c0.8,3.2,1.2,6.5,1.2,9.9c0,11.2,0,22.3,0,33.5c0,0.3,0,0.6,0,1c-1.3,0.6-2.5,1.3-3.8,1.9c-3.9,1.8-8,3.1-12.2,4.2
		c-4.6,1.3-9.3,2.2-14,2.9c-3.6,0.5-7.2,0.9-10.8,1.2c-5.6,0.4-11.2,0.6-16.7,0.4c-3-0.1-6.1-0.2-9.1-0.5
		c-5.2-0.4-10.4-1.1-15.5-1.9c-10.2-1.7-20.3-4.2-30.1-7.4C90,212,89.9,212,89.7,211.9z"/>
	<path class="st1" d="M112.8,99.1c0-18.4,14.9-33.2,33.1-33.2c18.5,0,33.2,15,33.2,33.1c0,18.1-14.6,33.2-33.1,33.2
		C127.8,132.2,112.9,117.5,112.8,99.1z"/>
</g>
</svg>
