<?xml version="1.0" encoding="utf-8"?>
<!-- Generator: Adobe Illustrator 19.1.0, SVG Export Plug-In . SVG Version: 6.00 Build 0)  -->
<!DOCTYPE svg PUBLIC "-//W3C//DTD SVG 1.1//EN" "http://www.w3.org/Graphics/SVG/1.1/DTD/svg11.dtd">
<svg version="1.1" id="Layer_1" xmlns="http://www.w3.org/2000/svg" xmlns:xlink="http://www.w3.org/1999/xlink" x="0px" y="0px"
	 viewBox="0 0 289 289" style="enable-background:new 0 0 289 289;" xml:space="preserve">
<style type="text/css">
	.st0{fill:#C5D9E9;}
	.st1{fill-rule:evenodd;clip-rule:evenodd;fill:#C5D9E9;}
</style>
<g>
	<path class="st0" d="M144.5,289C64.8,289,0,224.2,0,144.5C0,64.8,64.8,0,144.5,0S289,64.8,289,144.5C289,224.2,224.2,289,144.5,289
		z M144.5,30C81.4,30,30,81.4,30,144.5C30,207.6,81.4,259,144.5,259S259,207.6,259,144.5C259,81.4,207.6,30,144.5,30z"/>
</g>
<g>
	<polygon class="st1" points="70.5,109.1 217.9,109.1 143.9,50.7 	"/>
	<path class="st1" d="M205.8,197v-62.4h11.6v-19.8H69.9v19.8h13.6V197H65v19.8h157.1V197H205.8z M187.1,197h-15.9v-62.4h15.9V197z
		 M152.5,197h-16.8v-62.4h16.8V197z M102.1,134.6h15V197h-15V134.6z"/>
</g>
</svg>
