<?xml version="1.0" encoding="utf-8"?>
<!-- Generator: Adobe Illustrator 19.1.0, SVG Export Plug-In . SVG Version: 6.00 Build 0)  -->
<!DOCTYPE svg PUBLIC "-//W3C//DTD SVG 1.1//EN" "http://www.w3.org/Graphics/SVG/1.1/DTD/svg11.dtd">
<svg version="1.1" id="Layer_1" xmlns="http://www.w3.org/2000/svg" xmlns:xlink="http://www.w3.org/1999/xlink" x="0px" y="0px"
	 viewBox="0 0 289 289" style="enable-background:new 0 0 289 289;" xml:space="preserve">
<style type="text/css">
	.st0{fill:#C5D9E9;}
	.st1{fill-rule:evenodd;clip-rule:evenodd;fill:#C5D9E9;}
</style>
<g>
	<path class="st0" d="M144.5,289C64.8,289,0,224.2,0,144.5C0,64.8,64.8,0,144.5,0S289,64.8,289,144.5C289,224.2,224.2,289,144.5,289
		z M144.5,30C81.4,30,30,81.4,30,144.5C30,207.6,81.4,259,144.5,259S259,207.6,259,144.5C259,81.4,207.6,30,144.5,30z"/>
</g>
<g>
	<g>
		<path class="st1" d="M112.6,116.3c0-11.2,0-22.5,0-33.7c0-14,10.9-23.8,27.6-24.9c5.8-0.4,11.7-0.2,17.4,1.2
			c11.8,2.9,20,11.7,20.1,22c0.1,23.5,0.1,47,0,70.6c-0.1,11.9-10.6,21.5-25.2,23.1c-6.5,0.7-12.8,0.6-19.1-0.8
			c-12.3-2.8-20.6-11.8-20.7-22.5C112.5,139.6,112.6,127.9,112.6,116.3z"/>
	</g>
	<path class="st0" d="M202.9,128.1c0-1.8-0.2-3.5-0.7-5.1c-1.2-4-4.4-6.6-8.5-6.7c-4.2-0.1-7.7,2.3-8.9,6.3
		c-0.5,1.8-0.8,3.7-0.9,5.8c0,3.1,0,6.1,0,9.1c0,6,0.1,11.7-0.4,17.4c-1.1,12.9-7.4,21.8-19,26.5c-9.2,3.8-19.8,4.7-32.3,2.7
		c-7.5-1.2-13.4-3.8-18.1-7.9c-7-6.1-10.4-14.4-10.6-25.2c-0.1-5-0.1-10,0-14.9c0-3.3,0-6.5,0-9.8c0-5.9-3.8-10-9.4-10
		c0,0-0.1,0-0.1,0c-2.6,0-4.9,0.9-6.6,2.6c-1.3,1.3-2.9,3.7-2.9,7.6c0,2.4,0,4.8,0,7.2c0,6.4-0.1,12.9,0.1,19.4
		c0.2,10.9,3.4,20.7,9.3,29.2c7.8,11.1,19.1,17.8,34.7,20.5c1.8,0.3,3.7,0.5,5.5,0.8v12.3h-32.2v18.8h82v-18.9h-30.4v-12.2
		c1.8-0.2,3.6-0.4,5.5-0.7c26.7-4.1,44-24.3,44.1-51.3C203,143.2,203,135.5,202.9,128.1z"/>
</g>
</svg>
