<?xml version="1.0" encoding="utf-8"?>
<!-- Generator: Adobe Illustrator 19.1.0, SVG Export Plug-In . SVG Version: 6.00 Build 0)  -->
<!DOCTYPE svg PUBLIC "-//W3C//DTD SVG 1.1//EN" "http://www.w3.org/Graphics/SVG/1.1/DTD/svg11.dtd">
<svg version="1.1" id="Layer_1" xmlns="http://www.w3.org/2000/svg" xmlns:xlink="http://www.w3.org/1999/xlink" x="0px" y="0px"
	 viewBox="0 0 289 289" style="enable-background:new 0 0 289 289;" xml:space="preserve">
<style type="text/css">
	.st0{fill:#C5D9E9;}
	.st1{fill-rule:evenodd;clip-rule:evenodd;fill:#C5D9E9;}
</style>
<g>
	<path class="st0" d="M144.5,289C64.8,289,0,224.2,0,144.5C0,64.8,64.8,0,144.5,0S289,64.8,289,144.5C289,224.2,224.2,289,144.5,289
		z M144.5,30C81.4,30,30,81.4,30,144.5C30,207.6,81.4,259,144.5,259S259,207.6,259,144.5C259,81.4,207.6,30,144.5,30z"/>
</g>
<path class="st1" d="M178,122.6c0-11,8.9-19.8,19.8-19.9c11.1,0,19.9,9,19.9,19.8c0,10.8-8.7,19.9-19.8,19.9
	C186.9,142.4,178,133.6,178,122.6z"/>
<path class="st1" d="M70,122.6c0-11,8.9-19.8,19.8-19.9c11.1,0,19.9,9,19.9,19.8c0,10.8-8.7,19.9-19.8,19.9
	C79,142.4,70,133.6,70,122.6z"/>
<path class="st1" d="M230.9,163.2c-2.7-11.1-12.7-19.4-24.6-19.4c-5.7,0-11.3,0-17,0c-1,0-2,0.1-3,0.2c5.5,5.4,9.5,12.4,11.3,20.3
	c0.7,3.2,1.1,6.4,1.1,9.6c0,7.4,0,14.8,0,22.2c2.8,0,5.7,0,8.5-0.3c2.2-0.2,4.3-0.4,6.4-0.7c2.8-0.4,5.6-1,8.4-1.7
	c2.5-0.7,4.9-1.5,7.3-2.5c0.8-0.3,1.5-0.7,2.3-1.1c0-0.2,0-0.4,0-0.6c0-6.7,0-13.4,0-20.1C231.7,167.1,231.4,165.1,230.9,163.2z"/>
<path class="st1" d="M101.4,202.7c-0.2-0.4-0.2-0.8-0.2-1.2c0-6.4,0-12.9,0-19.3c0-2.2,0-4.4,0-6.5c0-1.8,0.1-3.5,0.3-5.2
	c0.4-3.1,1.3-6.2,2.5-9.1c4.3-9.8,13-17,23.4-19.4c2.5-0.6,4.9-0.9,7.4-0.9c7.5,0,15.1,0,22.6,0c15.8,0,29.1,11,32.7,25.8
	c0.6,2.6,0.9,5.2,0.9,7.8c0,8.9,0,17.8,0,26.7c0,0.2,0,0.5,0,0.8c-1,0.5-2,1-3.1,1.5c-3.1,1.4-6.4,2.5-9.7,3.3
	c-3.7,1-7.4,1.8-11.1,2.3c-2.8,0.4-5.7,0.8-8.6,1c-4.4,0.3-8.9,0.4-13.3,0.3c-2.4-0.1-4.8-0.2-7.3-0.4c-4.1-0.3-8.2-0.8-12.3-1.5
	c-8.1-1.4-16.1-3.3-24-5.9C101.7,202.8,101.6,202.7,101.4,202.7z"/>
<path class="st1" d="M119.8,113c0-14.7,11.8-26.4,26.3-26.4c14.8,0,26.4,12,26.4,26.3c0,14.4-11.6,26.4-26.4,26.4
	C131.8,139.3,119.9,127.6,119.8,113z"/>
<path class="st1" d="M93,183c0-2.7,0-5.3,0-8c0-2.1,0.1-4.3,0.4-6.4c0.5-3.8,1.5-7.5,3-11.1c2-4.8,5-9.2,8.5-12.8
	c-2.1-0.6-4.2-0.9-6.5-0.9c-5.7,0-11.3,0-17,0c-1.9,0-3.8,0.2-5.6,0.6c-7.8,1.8-14.4,7.2-17.6,14.6c-1,2.2-1.6,4.5-1.9,6.8
	c-0.2,1.3-0.2,2.6-0.2,3.9c0,1.6,0,3.3,0,4.9c0,4.8,0,9.7,0,14.5c0,0.3,0,0.6,0.1,0.9c0.1,0,0.2,0.1,0.4,0.1
	c5.9,1.9,11.9,3.4,18,4.4c3.1,0.5,6.2,0.9,9.3,1.1c1.8,0.1,3.6,0.2,5.5,0.3c1.3,0,2.5,0,3.8,0C93,191.7,93,187.3,93,183z"/>
</svg>
